<svg width="1600" height="900" viewBox="0 0 1600 900" fill="none" xmlns="http://www.w3.org/2000/svg">
  <rect width="1600" height="900" rx="32" fill="#0E1117"/>
  <rect x="48" y="48" width="1504" height="804" rx="28" fill="#161922" stroke="#808495" stroke-width="1.2"/>
  <rect x="48" y="48" width="1504" height="14" rx="7" fill="#FFC880"/>
  <circle cx="1388" cy="126" r="96" fill="#FFC880" fill-opacity="0.14"/>
  <circle cx="1480" cy="786" r="140" fill="#6BDBCB" fill-opacity="0.14"/>
  <circle cx="128" cy="786" r="110" fill="#ABB6FF" fill-opacity="0.10"/>

  <text x="86" y="96" fill="#FFC880" font-size="18" font-weight="700" font-family="Inter, Arial, sans-serif" letter-spacing="2.8">PUBLIC NUMERICAL METHODS NOTE</text>
  <text x="86" y="210" fill="#FFFFFF" font-size="66" font-weight="800" font-family="Inter, Arial, sans-serif">Monte Carlo</text><text x="86" y="286" fill="#FFFFFF" font-size="66" font-weight="800" font-family="Inter, Arial, sans-serif">Control Variate</text>
  <text x="88" y="360" fill="#CFCFD0" font-size="28" font-family="Inter, Arial, sans-serif">Arithmetic Asian option pricing under Black-Scholes, with</text><text x="88" y="394" fill="#CFCFD0" font-size="28" font-family="Inter, Arial, sans-serif">a geometric control variate that dramatically tightens the</text><text x="88" y="428" fill="#CFCFD0" font-size="28" font-family="Inter, Arial, sans-serif">estimator at the same path budget.</text>
  
    <g>
      <rect x="86" y="124" width="100" height="34" rx="17" fill="#262730"/>
      <text x="106" y="146" fill="#FFFFFF" font-size="18" font-family="Inter, Arial, sans-serif">Python</text>
    </g>
    
    <g>
      <rect x="198" y="124" width="160" height="34" rx="17" fill="#262730"/>
      <text x="218" y="146" fill="#FFFFFF" font-size="18" font-family="Inter, Arial, sans-serif">Asian Option</text>
    </g>
    
    <g>
      <rect x="370" y="124" width="190" height="34" rx="17" fill="#262730"/>
      <text x="390" y="146" fill="#FFFFFF" font-size="18" font-family="Inter, Arial, sans-serif">Control Variate</text>
    </g>
    
    <g>
      <rect x="572" y="124" width="220" height="34" rx="17" fill="#262730"/>
      <text x="592" y="146" fill="#FFFFFF" font-size="18" font-family="Inter, Arial, sans-serif">Variance Reduction</text>
    </g>
    

  <rect x="872" y="136" width="616" height="304" rx="26" fill="#262730" stroke="#808495" stroke-width="1.1"/>
  <text x="904" y="180" fill="#FFFFFF" font-size="24" font-weight="700" font-family="Inter, Arial, sans-serif">Standard error trend</text>
  <line x1="906" y1="390" x2="1456" y2="390" stroke="#808495" stroke-width="1"/>
  <line x1="906" y1="338" x2="1456" y2="338" stroke="#808495" stroke-opacity="0.45" stroke-width="1"/>
  <line x1="906" y1="286" x2="1456" y2="286" stroke="#808495" stroke-opacity="0.45" stroke-width="1"/>
  <line x1="906" y1="234" x2="1456" y2="234" stroke="#808495" stroke-opacity="0.45" stroke-width="1"/>
  <polyline points="928.0,228.0 1014.0,288.0 1098.0,326.0 1182.0,350.0 1266.0,368.0 1350.0,382.0" fill="none" stroke="#FFC880" stroke-width="5.5" stroke-linecap="round" stroke-linejoin="round"/>

  <rect x="872" y="468" width="616" height="210" rx="26" fill="#262730" stroke="#808495" stroke-width="1.1"/>
  <text x="904" y="512" fill="#FFFFFF" font-size="24" font-weight="700" font-family="Inter, Arial, sans-serif">Estimator signal by path budget</text>
  
            <text x="996" y="308" fill="#CFCFD0" font-size="18" font-family="Inter, Arial, sans-serif">2k paths</text>
            <rect x="996" y="318" width="300" height="18" rx="9" fill="#262730"/>
            <rect x="996" y="318" width="300.0" height="18" rx="9" fill="#6BDBCB"/>
            
            <text x="996" y="364" fill="#CFCFD0" font-size="18" font-family="Inter, Arial, sans-serif">10k paths</text>
            <rect x="996" y="374" width="300" height="18" rx="9" fill="#262730"/>
            <rect x="996" y="374" width="140.0" height="18" rx="9" fill="#6BDBCB"/>
            
            <text x="996" y="420" fill="#CFCFD0" font-size="18" font-family="Inter, Arial, sans-serif">50k paths</text>
            <rect x="996" y="430" width="300" height="18" rx="9" fill="#262730"/>
            <rect x="996" y="430" width="63.9" height="18" rx="9" fill="#6BDBCB"/>
            
            <text x="996" y="476" fill="#CFCFD0" font-size="18" font-family="Inter, Arial, sans-serif">100k paths</text>
            <rect x="996" y="486" width="300" height="18" rx="9" fill="#262730"/>
            <rect x="996" y="486" width="44.3" height="18" rx="9" fill="#6BDBCB"/>
            

  
    <g>
      <rect x="86" y="694" width="246" height="132" rx="22" fill="#161922" stroke="#808495" stroke-width="1.1"/>
      <text x="114" y="734" fill="#CFCFD0" font-size="18" font-family="Inter, Arial, sans-serif">reference price</text>
      <text x="114" y="788" fill="#FFC880" font-size="40" font-weight="700" font-family="Inter, Arial, sans-serif">9.5266</text>
    </g>
    
    <g>
      <rect x="358" y="694" width="246" height="132" rx="22" fill="#161922" stroke="#808495" stroke-width="1.1"/>
      <text x="386" y="734" fill="#CFCFD0" font-size="18" font-family="Inter, Arial, sans-serif">var reduction</text>
      <text x="386" y="788" fill="#FFC880" font-size="40" font-weight="700" font-family="Inter, Arial, sans-serif">552x</text>
    </g>
    
    <g>
      <rect x="630" y="694" width="246" height="132" rx="22" fill="#161922" stroke="#808495" stroke-width="1.1"/>
      <text x="658" y="734" fill="#CFCFD0" font-size="18" font-family="Inter, Arial, sans-serif">beta</text>
      <text x="658" y="788" fill="#FFC880" font-size="40" font-weight="700" font-family="Inter, Arial, sans-serif">1.038</text>
    </g>
    
  <text x="86" y="864" fill="#808495" font-size="20" font-family="Inter, Arial, sans-serif">monte-carlo-control-variate-lab • public portfolio project with reproducible outputs and README-ready visuals</text>
</svg>
