<svg width="1600" height="900" viewBox="0 0 1600 900" fill="none" xmlns="http://www.w3.org/2000/svg">
  <defs>
    <linearGradient id="bg" x1="130" y1="40" x2="1490" y2="860" gradientUnits="userSpaceOnUse">
      <stop stop-color="#09111D"/>
      <stop offset="1" stop-color="#101D30"/>
    </linearGradient>
    <linearGradient id="panel" x1="220" y1="150" x2="1370" y2="760" gradientUnits="userSpaceOnUse">
      <stop stop-color="#101C2E" stop-opacity="0.97"/>
      <stop offset="1" stop-color="#0C1625" stop-opacity="0.99"/>
    </linearGradient>
    <linearGradient id="curveA" x1="0" y1="0" x2="1" y2="1">
      <stop stop-color="#FFCF77"/>
      <stop offset="1" stop-color="#FF9E62"/>
    </linearGradient>
    <linearGradient id="curveB" x1="0" y1="0" x2="1" y2="1">
      <stop stop-color="#63DBFF"/>
      <stop offset="1" stop-color="#76F0C5"/>
    </linearGradient>
    <filter id="shadow" x="160" y="118" width="1280" height="664" filterUnits="userSpaceOnUse" color-interpolation-filters="sRGB">
      <feFlood flood-opacity="0" result="BackgroundImageFix"/>
      <feColorMatrix in="SourceAlpha" type="matrix" values="0 0 0 0 0 0 0 0 0 0 0 0 0 0 0 0 0 0 127 0" result="hardAlpha"/>
      <feOffset dy="16"/>
      <feGaussianBlur stdDeviation="30"/>
      <feColorMatrix type="matrix" values="0 0 0 0 0.0117647 0 0 0 0 0.0235294 0 0 0 0 0.0470588 0 0 0 0.48 0"/>
      <feBlend mode="normal" in2="BackgroundImageFix" result="effect1_dropShadow_1_1"/>
      <feBlend mode="normal" in="SourceGraphic" in2="effect1_dropShadow_1_1" result="shape"/>
    </filter>
  </defs>
  <rect width="1600" height="900" rx="36" fill="url(#bg)"/>
  <circle cx="1330" cy="120" r="248" fill="#123454" fill-opacity="0.30"/>
  <circle cx="1440" cy="734" r="220" fill="#18515A" fill-opacity="0.17"/>
  <g filter="url(#shadow)">
    <rect x="220" y="154" width="1160" height="548" rx="30" fill="url(#panel)" stroke="#27384D" stroke-width="1.5"/>
  </g>
  <rect x="262" y="200" width="215" height="34" rx="17" fill="#14273C"/>
  <text x="292" y="223" fill="#8AD7FF" font-size="18" font-family="SF Pro Display, Helvetica, Arial, sans-serif" letter-spacing="2.4">PUBLIC QUANT PROJECT</text>
  <text x="262" y="316" fill="#F4F7FB" font-size="68" font-weight="700" font-family="SF Pro Display, Helvetica, Arial, sans-serif">Monte Carlo Control Variate Lab</text>
  <text x="262" y="368" fill="#AFC1D8" font-size="24" font-family="SF Pro Text, Helvetica, Arial, sans-serif">Asian option pricing under Black-Scholes with geometric-control benchmarking and variance-reduction experiments.</text>
  <rect x="262" y="432" width="126" height="38" rx="19" fill="#132638"/>
  <text x="294" y="457" fill="#DCEAF8" font-size="18" font-family="SF Pro Text, Helvetica, Arial, sans-serif">Python</text>
  <rect x="400" y="432" width="194" height="38" rx="19" fill="#132638"/>
  <text x="430" y="457" fill="#DCEAF8" font-size="18" font-family="SF Pro Text, Helvetica, Arial, sans-serif">Asian Option</text>
  <rect x="606" y="432" width="190" height="38" rx="19" fill="#132638"/>
  <text x="637" y="457" fill="#DCEAF8" font-size="18" font-family="SF Pro Text, Helvetica, Arial, sans-serif">Control Variate</text>
  <rect x="262" y="525" width="470" height="130" rx="24" fill="#0E1929" stroke="#24364A" stroke-width="1.2"/>
  <text x="292" y="563" fill="#7D95B3" font-size="18" font-family="SF Pro Text, Helvetica, Arial, sans-serif">Estimator Story</text>
  <text x="292" y="603" fill="#F5F8FC" font-size="28" font-weight="600" font-family="SF Pro Display, Helvetica, Arial, sans-serif">Plain MC noise shrinks fast once the geometric control is applied</text>
  <text x="292" y="636" fill="#96A9C0" font-size="17" font-family="SF Pro Text, Helvetica, Arial, sans-serif">Same arithmetic payoff, lower variance, cleaner confidence bands.</text>
  <rect x="760" y="214" width="570" height="214" rx="24" fill="#0D1828" stroke="#243448" stroke-width="1.2"/>
  <text x="792" y="252" fill="#7F96B2" font-size="18" font-family="SF Pro Text, Helvetica, Arial, sans-serif">Standard Error By Path Count</text>
  <line x1="812" y1="390" x2="1295" y2="390" stroke="#2B3D54" stroke-width="1"/>
  <line x1="812" y1="345" x2="1295" y2="345" stroke="#1E2E42" stroke-width="1"/>
  <line x1="812" y1="300" x2="1295" y2="300" stroke="#1E2E42" stroke-width="1"/>
  <line x1="812" y1="255" x2="1295" y2="255" stroke="#1E2E42" stroke-width="1"/>
  <path d="M820 257L898 292L976 321L1054 341L1132 359L1284 376" stroke="url(#curveA)" stroke-width="5" stroke-linecap="round"/>
  <path d="M820 302L898 336L976 355L1054 366L1132 374L1284 384" stroke="url(#curveB)" stroke-width="5" stroke-linecap="round"/>
  <circle cx="820" cy="257" r="7" fill="#FFCC75"/>
  <circle cx="898" cy="292" r="7" fill="#FFBE6A"/>
  <circle cx="976" cy="321" r="7" fill="#FFB066"/>
  <circle cx="1054" cy="341" r="7" fill="#FFA463"/>
  <circle cx="1132" cy="359" r="7" fill="#FF9C63"/>
  <circle cx="1284" cy="376" r="7" fill="#FF9563"/>
  <circle cx="820" cy="302" r="7" fill="#61D9FF"/>
  <circle cx="898" cy="336" r="7" fill="#69E2EF"/>
  <circle cx="976" cy="355" r="7" fill="#70E8DE"/>
  <circle cx="1054" cy="366" r="7" fill="#75EDD1"/>
  <circle cx="1132" cy="374" r="7" fill="#79F1C8"/>
  <circle cx="1284" cy="384" r="7" fill="#7DF5C2"/>
  <rect x="760" y="454" width="270" height="204" rx="24" fill="#0D1828" stroke="#243448" stroke-width="1.2"/>
  <text x="792" y="492" fill="#7F96B2" font-size="18" font-family="SF Pro Text, Helvetica, Arial, sans-serif">Reference Run</text>
  <text x="792" y="537" fill="#F6F8FB" font-size="18" font-family="SF Pro Text, Helvetica, Arial, sans-serif">Arithmetic Asian estimate</text>
  <text x="792" y="574" fill="#FFFFFF" font-size="34" font-weight="700" font-family="SF Pro Display, Helvetica, Arial, sans-serif">9.5266</text>
  <text x="792" y="618" fill="#F6F8FB" font-size="18" font-family="SF Pro Text, Helvetica, Arial, sans-serif">Variance reduction</text>
  <text x="792" y="655" fill="url(#curveB)" font-size="36" font-weight="700" font-family="SF Pro Display, Helvetica, Arial, sans-serif">500x+</text>
  <rect x="1060" y="454" width="270" height="204" rx="24" fill="#0D1828" stroke="#243448" stroke-width="1.2"/>
  <text x="1092" y="492" fill="#7F96B2" font-size="18" font-family="SF Pro Text, Helvetica, Arial, sans-serif">Control Asset</text>
  <text x="1092" y="537" fill="#F6F8FB" font-size="18" font-family="SF Pro Text, Helvetica, Arial, sans-serif">Analytic geometric Asian call</text>
  <text x="1092" y="574" fill="#FFFFFF" font-size="34" font-weight="700" font-family="SF Pro Display, Helvetica, Arial, sans-serif">9.0966</text>
  <text x="1092" y="618" fill="#F6F8FB" font-size="18" font-family="SF Pro Text, Helvetica, Arial, sans-serif">Optimal beta</text>
  <text x="1092" y="655" fill="url(#curveA)" font-size="36" font-weight="700" font-family="SF Pro Display, Helvetica, Arial, sans-serif">~1.03</text>
  <text x="220" y="794" fill="#7B8CA4" font-size="20" font-family="SF Pro Text, Helvetica, Arial, sans-serif">Portfolio-ready numerical-methods demo • Pricing, estimator design, and variance reduction</text>
</svg>
