<svg width="1500" height="920" viewBox="0 0 1500 920" fill="none" xmlns="http://www.w3.org/2000/svg">
<rect width="1500" height="920" rx="28" fill="#0B1220"/>
<text x="140" y="108" fill="#F5F7FB" font-size="40" font-weight="700" font-family="SF Pro Display, Helvetica, Arial, sans-serif">Monte Carlo Standard Error By Path Count</text>
<text x="140" y="146" fill="#91A4BD" font-size="18" font-family="SF Pro Text, Helvetica, Arial, sans-serif">The control variate tracks the same arithmetic Asian payoff while materially reducing estimator noise.</text>
<line x1="140" y1="780" x2="1350" y2="780" stroke="#32455E" stroke-width="2"/>
<line x1="140" y1="200" x2="140" y2="780" stroke="#32455E" stroke-width="2"/>
<rect x="1040" y="84" width="18" height="18" rx="4" fill="#FFC86E"/>
<text x="1072" y="99" fill="#DDE8F4" font-size="16" font-family="SF Pro Text, Helvetica, Arial, sans-serif">Plain Monte Carlo</text>
<rect x="1200" y="84" width="18" height="18" rx="4" fill="#61D9FF"/>
<text x="1232" y="99" fill="#DDE8F4" font-size="16" font-family="SF Pro Text, Helvetica, Arial, sans-serif">Control Variate</text>
<line x1="140" y1="780.0" x2="1350" y2="780.0" stroke="#1B2B40" stroke-width="1"/>
<text x="42" y="786.0" fill="#7890AA" font-size="16" font-family="SF Pro Text, Helvetica, Arial, sans-serif">-0.02503</text>
<line x1="140" y1="635.0" x2="1350" y2="635.0" stroke="#1B2B40" stroke-width="1"/>
<text x="42" y="641.0" fill="#7890AA" font-size="16" font-family="SF Pro Text, Helvetica, Arial, sans-serif">0.07446</text>
<line x1="140" y1="490.0" x2="1350" y2="490.0" stroke="#1B2B40" stroke-width="1"/>
<text x="42" y="496.0" fill="#7890AA" font-size="16" font-family="SF Pro Text, Helvetica, Arial, sans-serif">0.17396</text>
<line x1="140" y1="345.0" x2="1350" y2="345.0" stroke="#1B2B40" stroke-width="1"/>
<text x="42" y="351.0" fill="#7890AA" font-size="16" font-family="SF Pro Text, Helvetica, Arial, sans-serif">0.27345</text>
<line x1="140" y1="200.0" x2="1350" y2="200.0" stroke="#1B2B40" stroke-width="1"/>
<text x="42" y="206.0" fill="#7890AA" font-size="16" font-family="SF Pro Text, Helvetica, Arial, sans-serif">0.37294</text>
<line x1="140.0" y1="200" x2="140.0" y2="780" stroke="#132338" stroke-width="1"/>
<text x="112.0" y="820" fill="#AABED6" font-size="15" font-family="SF Pro Text, Helvetica, Arial, sans-serif">2,000</text>
<line x1="177.0" y1="200" x2="177.0" y2="780" stroke="#132338" stroke-width="1"/>
<text x="149.0" y="820" fill="#AABED6" font-size="15" font-family="SF Pro Text, Helvetica, Arial, sans-serif">5,000</text>
<line x1="238.8" y1="200" x2="238.8" y2="780" stroke="#132338" stroke-width="1"/>
<text x="210.8" y="820" fill="#AABED6" font-size="15" font-family="SF Pro Text, Helvetica, Arial, sans-serif">10,000</text>
<line x1="424.0" y1="200" x2="424.0" y2="780" stroke="#132338" stroke-width="1"/>
<text x="396.0" y="820" fill="#AABED6" font-size="15" font-family="SF Pro Text, Helvetica, Arial, sans-serif">25,000</text>
<line x1="732.7" y1="200" x2="732.7" y2="780" stroke="#132338" stroke-width="1"/>
<text x="704.7" y="820" fill="#AABED6" font-size="15" font-family="SF Pro Text, Helvetica, Arial, sans-serif">50,000</text>
<line x1="1350.0" y1="200" x2="1350.0" y2="780" stroke="#132338" stroke-width="1"/>
<text x="1322.0" y="820" fill="#AABED6" font-size="15" font-family="SF Pro Text, Helvetica, Arial, sans-serif">100,000</text>
<path d="M 140.00 249.15 L 177.04 431.30 L 238.78 534.34 L 423.98 609.26 L 732.65 648.54 L 1350.00 676.43" stroke="#FFC86E" stroke-width="5" stroke-linecap="round" stroke-linejoin="round"/>
<path d="M 140.00 724.25 L 177.04 730.80 L 238.78 734.53 L 423.98 737.78 L 732.65 739.42 L 1350.00 740.68" stroke="#61D9FF" stroke-width="5" stroke-linecap="round" stroke-linejoin="round"/>
<circle cx="140.00" cy="249.15" r="7" fill="#FFC86E"/>
<circle cx="177.04" cy="431.30" r="7" fill="#FFC86E"/>
<circle cx="238.78" cy="534.34" r="7" fill="#FFC86E"/>
<circle cx="423.98" cy="609.26" r="7" fill="#FFC86E"/>
<circle cx="732.65" cy="648.54" r="7" fill="#FFC86E"/>
<circle cx="1350.00" cy="676.43" r="7" fill="#FFC86E"/>
<circle cx="140.00" cy="724.25" r="7" fill="#61D9FF"/>
<circle cx="177.04" cy="730.80" r="7" fill="#61D9FF"/>
<circle cx="238.78" cy="734.53" r="7" fill="#61D9FF"/>
<circle cx="423.98" cy="737.78" r="7" fill="#61D9FF"/>
<circle cx="732.65" cy="739.42" r="7" fill="#61D9FF"/>
<circle cx="1350.00" cy="740.68" r="7" fill="#61D9FF"/>
</svg>